<svg width="25" height="25" viewBox="0 0 25 25" fill="none" xmlns="http://www.w3.org/2000/svg">
<path d="M19.7917 3.125H15.4375C15 1.91667 13.8542 1.04167 12.5 1.04167C11.1458 1.04167 10 1.91667 9.5625 3.125H5.20833C4.0625 3.125 3.125 4.0625 3.125 5.20833V19.7917C3.125 20.9375 4.0625 21.875 5.20833 21.875H19.7917C20.9375 21.875 21.875 20.9375 21.875 19.7917V5.20833C21.875 4.0625 20.9375 3.125 19.7917 3.125ZM12.5 3.125C13.0729 3.125 13.5417 3.59375 13.5417 4.16667C13.5417 4.73958 13.0729 5.20833 12.5 5.20833C11.9271 5.20833 11.4583 4.73958 11.4583 4.16667C11.4583 3.59375 11.9271 3.125 12.5 3.125ZM14.5833 17.7083H7.29167V15.625H14.5833V17.7083ZM17.7083 13.5417H7.29167V11.4583H17.7083V13.5417ZM17.7083 9.375H7.29167V7.29167H17.7083V9.375Z" fill="#1E1E1E"/>
</svg>
