<svg width="25" height="25" viewBox="0 0 25 25" fill="none" xmlns="http://www.w3.org/2000/svg">
<path d="M10.4166 16.6667V15.625H3.1354L3.12498 19.7917C3.12498 20.9479 4.05206 21.875 5.20831 21.875H19.7916C20.9479 21.875 21.875 20.9479 21.875 19.7917V15.625H14.5833V16.6667H10.4166ZM20.8333 7.29167H16.6562V5.20833L14.5729 3.125H10.4062L8.3229 5.20833V7.29167H4.16665C3.02081 7.29167 2.08331 8.22917 2.08331 9.375V12.5C2.08331 13.6562 3.0104 14.5833 4.16665 14.5833H10.4166V12.5H14.5833V14.5833H20.8333C21.9791 14.5833 22.9166 13.6458 22.9166 12.5V9.375C22.9166 8.22917 21.9791 7.29167 20.8333 7.29167ZM14.5833 7.29167H10.4166V5.20833H14.5833V7.29167Z" fill="#1E1E1E"/>
</svg>
