<svg width="35" height="35" viewBox="0 0 35 35" fill="none" xmlns="http://www.w3.org/2000/svg">
<rect width="35" height="35" rx="17.5" fill="#9E2140" fill-opacity="0.1"/>
<mask id="mask0_736_1036" style="mask-type:alpha" maskUnits="userSpaceOnUse" x="8" y="8" width="19" height="19">
<rect x="8.5" y="8.5" width="18" height="18" fill="#D9D9D9"/>
</mask>
<g mask="url(#mask0_736_1036)">
<path d="M11.5 23.5C11.0875 23.5 10.7345 23.3533 10.441 23.0597C10.147 22.7657 10 22.4125 10 22V13C10 12.5875 10.147 12.2345 10.441 11.941C10.7345 11.647 11.0875 11.5 11.5 11.5H23.5C23.9125 11.5 24.2657 11.647 24.5597 11.941C24.8533 12.2345 25 12.5875 25 13V17.5H11.5V22H19V23.5H11.5ZM11.5 14.5H23.5V13H11.5V14.5ZM22.75 25V22.75H20.5V21.25H22.75V19H24.25V21.25H26.5V22.75H24.25V25H22.75Z" fill="#9E2140"/>
</g>
</svg>
