<svg width="21" height="21" viewBox="0 0 21 21" fill="none" xmlns="http://www.w3.org/2000/svg">
<path d="M2 20.7C1.45 20.7 0.979 20.504 0.587 20.112C0.195667 19.7207 0 19.25 0 18.7V4.69999C0 4.14999 0.195667 3.67899 0.587 3.28699C0.979 2.89565 1.45 2.69999 2 2.69999H10.925L8.925 4.69999H2V18.7H16V11.75L18 9.74999V18.7C18 19.25 17.8043 19.7207 17.413 20.112C17.021 20.504 16.55 20.7 16 20.7H2ZM13.175 3.27499L14.6 4.67499L8 11.275V12.7H9.4L16.025 6.07499L17.45 7.47499L10.25 14.7H6V10.45L13.175 3.27499ZM17.45 7.47499L13.175 3.27499L15.675 0.774988C16.075 0.374988 16.5543 0.174988 17.113 0.174988C17.671 0.174988 18.1417 0.374988 18.525 0.774988L19.925 2.19999C20.3083 2.58332 20.5 3.04999 20.5 3.59999C20.5 4.14999 20.3083 4.61665 19.925 4.99999L17.45 7.47499Z" fill="white"/>
</svg>
