<svg width="25" height="25" viewBox="0 0 25 25" fill="none" xmlns="http://www.w3.org/2000/svg">
<path d="M19.7083 2.09376C19.5 1.47917 18.9167 1.04167 18.2292 1.04167H6.77083C6.08333 1.04167 5.51042 1.47917 5.29167 2.09376L3.125 8.33334V16.6667C3.125 17.2396 3.59375 17.7083 4.16667 17.7083H5.20833C5.78125 17.7083 6.25 17.2396 6.25 16.6667V15.625H18.75V16.6667C18.75 17.2396 19.2188 17.7083 19.7917 17.7083H20.8333C21.4062 17.7083 21.875 17.2396 21.875 16.6667V8.33334L19.7083 2.09376ZM6.77083 12.5C5.90625 12.5 5.20833 11.8021 5.20833 10.9375C5.20833 10.0729 5.90625 9.375 6.77083 9.375C7.63542 9.375 8.33333 10.0729 8.33333 10.9375C8.33333 11.8021 7.63542 12.5 6.77083 12.5ZM18.2292 12.5C17.3646 12.5 16.6667 11.8021 16.6667 10.9375C16.6667 10.0729 17.3646 9.375 18.2292 9.375C19.0937 9.375 19.7917 10.0729 19.7917 10.9375C19.7917 11.8021 19.0937 12.5 18.2292 12.5ZM5.20833 7.29167L6.77083 2.60417H18.2292L19.7917 7.29167H5.20833Z" fill="#1E1E1E"/>
<path d="M7.29169 20.8333H11.4584V18.75L17.7084 21.875H13.5417V23.9583L7.29169 20.8333Z" fill="#1E1E1E"/>
</svg>
