<svg width="71" height="70" viewBox="0 0 71 70" fill="none" xmlns="http://www.w3.org/2000/svg">
<path d="M25.7778 47.5C25.0139 47.5 24.3597 47.2282 23.8153 46.6847C23.2718 46.1403 23 45.4861 23 44.7222V25.2778C23 24.5139 23.2718 23.8597 23.8153 23.3153C24.3597 22.7718 25.0139 22.5 25.7778 22.5H39.6667L48 30.8333V44.7222C48 45.4861 47.7282 46.1403 47.1847 46.6847C46.6403 47.2282 45.9861 47.5 45.2222 47.5H25.7778ZM28.5556 41.9444H42.4444V39.1667H28.5556V41.9444ZM28.5556 36.3889H42.4444V33.6111H28.5556V36.3889ZM28.5556 30.8333H38.2778V28.0556H28.5556V30.8333Z" fill="#9E2140"/>
<rect x="1.5" y="1" width="68" height="68" rx="4" stroke="#9E2140" stroke-width="2"/>
</svg>
