<svg width="50" height="50" viewBox="0 0 50 50" fill="none" xmlns="http://www.w3.org/2000/svg">
<rect width="50" height="50" rx="25" fill="black"/>
<path d="M24.95 31C25.3 31 25.596 30.879 25.838 30.637C26.0793 30.3957 26.2 30.1 26.2 29.75C26.2 29.4 26.0793 29.1043 25.838 28.863C25.596 28.621 25.3 28.5 24.95 28.5C24.6 28.5 24.304 28.621 24.062 28.863C23.8207 29.1043 23.7 29.4 23.7 29.75C23.7 30.1 23.8207 30.3957 24.062 30.637C24.304 30.879 24.6 31 24.95 31ZM24.05 27.15H25.9C25.9 26.6 25.9627 26.1667 26.088 25.85C26.2127 25.5333 26.5667 25.1 27.15 24.55C27.5833 24.1167 27.925 23.704 28.175 23.312C28.425 22.9207 28.55 22.45 28.55 21.9C28.55 20.9667 28.2083 20.25 27.525 19.75C26.8417 19.25 26.0333 19 25.1 19C24.15 19 23.3793 19.25 22.788 19.75C22.196 20.25 21.7833 20.85 21.55 21.55L23.2 22.2C23.2833 21.9 23.471 21.575 23.763 21.225C24.0543 20.875 24.5 20.7 25.1 20.7C25.6333 20.7 26.0333 20.8457 26.3 21.137C26.5667 21.429 26.7 21.75 26.7 22.1C26.7 22.4333 26.6 22.7457 26.4 23.037C26.2 23.329 25.95 23.6 25.65 23.85C24.9167 24.5 24.4667 24.9917 24.3 25.325C24.1333 25.6583 24.05 26.2667 24.05 27.15ZM25 35C23.6167 35 22.3167 34.7373 21.1 34.212C19.8833 33.6873 18.825 32.975 17.925 32.075C17.025 31.175 16.3127 30.1167 15.788 28.9C15.2627 27.6833 15 26.3833 15 25C15 23.6167 15.2627 22.3167 15.788 21.1C16.3127 19.8833 17.025 18.825 17.925 17.925C18.825 17.025 19.8833 16.3123 21.1 15.787C22.3167 15.2623 23.6167 15 25 15C26.3833 15 27.6833 15.2623 28.9 15.787C30.1167 16.3123 31.175 17.025 32.075 17.925C32.975 18.825 33.6873 19.8833 34.212 21.1C34.7373 22.3167 35 23.6167 35 25C35 26.3833 34.7373 27.6833 34.212 28.9C33.6873 30.1167 32.975 31.175 32.075 32.075C31.175 32.975 30.1167 33.6873 28.9 34.212C27.6833 34.7373 26.3833 35 25 35ZM25 33C27.2333 33 29.125 32.225 30.675 30.675C32.225 29.125 33 27.2333 33 25C33 22.7667 32.225 20.875 30.675 19.325C29.125 17.775 27.2333 17 25 17C22.7667 17 20.875 17.775 19.325 19.325C17.775 20.875 17 22.7667 17 25C17 27.2333 17.775 29.125 19.325 30.675C20.875 32.225 22.7667 33 25 33Z" fill="white"/>
</svg>
