<svg width="25" height="25" viewBox="0 0 25 25" fill="none" xmlns="http://www.w3.org/2000/svg">
<path d="M14.5834 2.08333H6.25002C5.10419 2.08333 4.16669 3.02083 4.16669 4.16667V20.8333C4.16669 21.9792 5.09377 22.9167 6.2396 22.9167H18.75C19.8959 22.9167 20.8334 21.9792 20.8334 20.8333V8.33333L14.5834 2.08333ZM15.6667 20.2604L13.7084 18.3021C12.3229 19.0417 10.5729 18.8542 9.40627 17.6875C7.97919 16.2604 7.97919 13.9583 9.40627 12.5313C10.8334 11.1042 13.1354 11.1042 14.5625 12.5313C15.7292 13.6979 15.9271 15.4479 15.1771 16.8333L17.1354 18.7917L15.6667 20.2604ZM13.5417 9.375V3.64583L19.2709 9.375H13.5417Z" fill="#1E1E1E"/>
<path d="M11.9792 16.6667C12.8421 16.6667 13.5417 15.9671 13.5417 15.1042C13.5417 14.2412 12.8421 13.5417 11.9792 13.5417C11.1162 13.5417 10.4167 14.2412 10.4167 15.1042C10.4167 15.9671 11.1162 16.6667 11.9792 16.6667Z" fill="#1E1E1E"/>
</svg>
