<svg width="25" height="25" viewBox="0 0 25 25" fill="none" xmlns="http://www.w3.org/2000/svg">
<path d="M14.5834 2.08333H6.25002C5.10419 2.08333 4.16669 3.02083 4.16669 4.16667V20.8333C4.16669 21.9792 5.10419 22.9167 6.25002 22.9167H18.75C19.8959 22.9167 20.8334 21.9792 20.8334 20.8333V8.33333L14.5834 2.08333ZM15.625 11.4583H11.4584V12.5H14.5834C15.1563 12.5 15.625 12.9688 15.625 13.5417V16.6667C15.625 17.2396 15.1563 17.7083 14.5834 17.7083H13.5417V18.75H11.4584V17.7083H9.37502V15.625H13.5417V14.5833H10.4167C9.84377 14.5833 9.37502 14.1146 9.37502 13.5417V10.4167C9.37502 9.84375 9.84377 9.375 10.4167 9.375H11.4584V8.33333H13.5417V9.375H15.625V11.4583Z" fill="#1E1E1E"/>
</svg>
