<svg width="35" height="35" viewBox="0 0 35 35" fill="none" xmlns="http://www.w3.org/2000/svg">
<rect width="35" height="35" rx="17.5" fill="#9E2140" fill-opacity="0.1"/>
<path d="M13.75 12.0833C13.4028 12.0833 13.1078 12.205 12.865 12.4483C12.6217 12.6911 12.5 12.9861 12.5 13.3333C12.5 13.6806 12.6217 13.9756 12.865 14.2183C13.1078 14.4617 13.4028 14.5833 13.75 14.5833C14.0972 14.5833 14.3922 14.4617 14.635 14.2183C14.8783 13.9756 15 13.6806 15 13.3333C15 12.9861 14.8783 12.6911 14.635 12.4483C14.3922 12.205 14.0972 12.0833 13.75 12.0833ZM13.75 20.4167C13.4028 20.4167 13.1078 20.5383 12.865 20.7817C12.6217 21.0244 12.5 21.3194 12.5 21.6667C12.5 22.0139 12.6217 22.3089 12.865 22.5517C13.1078 22.795 13.4028 22.9167 13.75 22.9167C14.0972 22.9167 14.3922 22.795 14.635 22.5517C14.8783 22.3089 15 22.0139 15 21.6667C15 21.3194 14.8783 21.0244 14.635 20.7817C14.3922 20.5383 14.0972 20.4167 13.75 20.4167ZM10.8333 9.58334H24.1667C24.4028 9.58334 24.6006 9.66306 24.76 9.8225C24.92 9.9825 25 10.1806 25 10.4167V16.25C25 16.4861 24.92 16.6839 24.76 16.8433C24.6006 17.0033 24.4028 17.0833 24.1667 17.0833H10.8333C10.5972 17.0833 10.3994 17.0033 10.24 16.8433C10.08 16.6839 10 16.4861 10 16.25V10.4167C10 10.1806 10.08 9.9825 10.24 9.8225C10.3994 9.66306 10.5972 9.58334 10.8333 9.58334ZM11.6667 11.25V15.4167H23.3333V11.25H11.6667ZM10.8333 17.9167H24.1667C24.4028 17.9167 24.6006 17.9964 24.76 18.1558C24.92 18.3158 25 18.5139 25 18.75V24.5833C25 24.8194 24.92 25.0172 24.76 25.1767C24.6006 25.3367 24.4028 25.4167 24.1667 25.4167H10.8333C10.5972 25.4167 10.3994 25.3367 10.24 25.1767C10.08 25.0172 10 24.8194 10 24.5833V18.75C10 18.5139 10.08 18.3158 10.24 18.1558C10.3994 17.9964 10.5972 17.9167 10.8333 17.9167ZM11.6667 19.5833V23.75H23.3333V19.5833H11.6667Z" fill="#9E2140"/>
</svg>
