<svg width="36" height="35" viewBox="0 0 36 35" fill="none" xmlns="http://www.w3.org/2000/svg">
<rect x="0.5" width="35" height="35" rx="17.5" fill="#9E2140" fill-opacity="0.1"/>
<path d="M16.5625 17.5C16.1736 17.5 15.8542 17.3542 15.6042 17.0625C15.3542 16.7708 15.2639 16.4306 15.3333 16.0417L15.5833 14.5417C15.6944 13.9444 15.9758 13.455 16.4275 13.0733C16.8786 12.6911 17.4028 12.5 18 12.5C18.6111 12.5 19.1425 12.6911 19.5942 13.0733C20.0453 13.455 20.3264 13.9444 20.4375 14.5417L20.6875 16.0417C20.7569 16.4306 20.6667 16.7708 20.4167 17.0625C20.1667 17.3542 19.8472 17.5 19.4583 17.5H16.5625ZM17.0625 15.8333H18.9583L18.7917 14.8125C18.7639 14.6181 18.6736 14.4617 18.5208 14.3433C18.3681 14.2256 18.1944 14.1667 18 14.1667C17.8056 14.1667 17.6353 14.2256 17.4892 14.3433C17.3436 14.4617 17.2569 14.6181 17.2292 14.8125L17.0625 15.8333ZM10.5833 18.3125C10.2639 18.3264 9.98972 18.2639 9.76083 18.125C9.53139 17.9861 9.38194 17.7708 9.3125 17.4792C9.28472 17.3542 9.27778 17.2292 9.29167 17.1042C9.30556 16.9792 9.34028 16.8611 9.39583 16.75C9.39583 16.7639 9.38889 16.7361 9.375 16.6667C9.31944 16.5972 9.27444 16.5208 9.24 16.4375C9.205 16.3542 9.18056 16.2639 9.16667 16.1667C9.13889 16 9.15972 15.8403 9.22917 15.6875C9.29861 15.5347 9.38889 15.4028 9.5 15.2917L9.54167 15.25C9.56944 14.9861 9.67722 14.7639 9.865 14.5833C10.0522 14.4028 10.2847 14.3125 10.5625 14.3125C10.6042 14.3125 10.7361 14.3403 10.9583 14.3958L11.0208 14.375C11.0903 14.3056 11.1806 14.2533 11.2917 14.2183C11.4028 14.1839 11.5208 14.1667 11.6458 14.1667C11.7986 14.1667 11.9342 14.1908 12.0525 14.2392C12.1703 14.2881 12.2639 14.3611 12.3333 14.4583C12.3472 14.4583 12.3578 14.4619 12.365 14.4692C12.3717 14.4758 12.3819 14.4792 12.3958 14.4792C12.5903 14.4931 12.7606 14.5519 12.9067 14.6558C13.0522 14.7603 13.1597 14.9028 13.2292 15.0833C13.2569 15.1806 13.2672 15.2744 13.26 15.365C13.2533 15.455 13.2361 15.5417 13.2083 15.625C13.2083 15.6389 13.2153 15.6667 13.2292 15.7083C13.3264 15.8056 13.4028 15.9131 13.4583 16.0308C13.5139 16.1492 13.5417 16.2708 13.5417 16.3958C13.5417 16.4514 13.5 16.5972 13.4167 16.8333C13.4028 16.8611 13.4028 16.8889 13.4167 16.9167L13.4583 17.25C13.4583 17.5417 13.3369 17.7917 13.0942 18C12.8508 18.2083 12.5556 18.3125 12.2083 18.3125H10.5833ZM24.6667 18.3333C24.2083 18.3333 23.8158 18.17 23.4892 17.8433C23.1631 17.5172 23 17.125 23 16.6667C23 16.5 23.0242 16.3439 23.0725 16.1983C23.1214 16.0522 23.1875 15.9097 23.2708 15.7708L22.6875 15.25C22.5486 15.1389 22.5244 15 22.615 14.8333C22.705 14.6667 22.8333 14.5833 23 14.5833H24.6667C25.125 14.5833 25.5175 14.7464 25.8442 15.0725C26.1703 15.3992 26.3333 15.7917 26.3333 16.25V16.6667C26.3333 17.125 26.1703 17.5172 25.8442 17.8433C25.5175 18.17 25.125 18.3333 24.6667 18.3333ZM8 22.5V21.1875C8 20.5764 8.30917 20.0867 8.9275 19.7183C9.54528 19.3506 10.3472 19.1667 11.3333 19.1667C11.5139 19.1667 11.6875 19.17 11.8542 19.1767C12.0208 19.1839 12.1806 19.2014 12.3333 19.2292C12.1389 19.5069 11.9931 19.8056 11.8958 20.125C11.7986 20.4444 11.75 20.7847 11.75 21.1458V22.5H8ZM13 22.5V21.1458C13 20.2431 13.4619 19.5139 14.3858 18.9583C15.3092 18.4028 16.5139 18.125 18 18.125C19.5 18.125 20.7083 18.4028 21.625 18.9583C22.5417 19.5139 23 20.2431 23 21.1458V22.5H13ZM24.6667 19.1667C25.6667 19.1667 26.4722 19.3506 27.0833 19.7183C27.6944 20.0867 28 20.5764 28 21.1875V22.5H24.25V21.1458C24.25 20.7847 24.2047 20.4444 24.1142 20.125C24.0242 19.8056 23.8889 19.5069 23.7083 19.2292C23.8611 19.2014 24.0175 19.1839 24.1775 19.1767C24.3369 19.17 24.5 19.1667 24.6667 19.1667ZM18 19.7917C17.2083 19.7917 16.5 19.8958 15.875 20.1042C15.25 20.3125 14.8819 20.5556 14.7708 20.8333H21.25C21.125 20.5556 20.7533 20.3125 20.135 20.1042C19.5172 19.8958 18.8056 19.7917 18 19.7917Z" fill="#9E2140"/>
</svg>
