<svg width="25" height="25" viewBox="0 0 25 25" fill="none" xmlns="http://www.w3.org/2000/svg">
<path d="M17.1875 12.5C18.625 12.5 19.7812 11.3333 19.7812 9.89583C19.7812 8.45833 18.625 7.29166 17.1875 7.29166C15.75 7.29166 14.5833 8.45833 14.5833 9.89583C14.5833 11.3333 15.75 12.5 17.1875 12.5ZM9.37498 11.4583C11.1041 11.4583 12.4896 10.0625 12.4896 8.33333C12.4896 6.60416 11.1041 5.20833 9.37498 5.20833C7.64581 5.20833 6.24998 6.60416 6.24998 8.33333C6.24998 10.0625 7.64581 11.4583 9.37498 11.4583ZM17.1875 14.5833C15.2812 14.5833 11.4583 15.5417 11.4583 17.4479V19.7917H22.9166V17.4479C22.9166 15.5417 19.0937 14.5833 17.1875 14.5833ZM9.37498 13.5417C6.9479 13.5417 2.08331 14.7604 2.08331 17.1875V19.7917H9.37498V17.4479C9.37498 16.5625 9.71873 15.0104 11.8437 13.8333C10.9375 13.6458 10.0625 13.5417 9.37498 13.5417Z" fill="#1E1E1E"/>
</svg>
